<svg width="24" height="24" viewBox="0 0 24 24" fill="none" xmlns="http://www.w3.org/2000/svg">
<path d="M18.3333 13.3334C19.0697 13.3334 19.6667 12.7364 19.6667 12C19.6667 11.2636 19.0697 10.6667 18.3333 10.6667C17.597 10.6667 17 11.2636 17 12C17 12.7364 17.597 13.3334 18.3333 13.3334Z" stroke="#373F47" stroke-linecap="round" stroke-linejoin="round"/>
<path d="M18.3333 7.99998C19.0697 7.99998 19.6667 7.40303 19.6667 6.66665C19.6667 5.93027 19.0697 5.33331 18.3333 5.33331C17.597 5.33331 17 5.93027 17 6.66665C17 7.40303 17.597 7.99998 18.3333 7.99998Z" stroke="#373F47" stroke-linecap="round" stroke-linejoin="round"/>
<path d="M18.3333 18.6667C19.0697 18.6667 19.6667 18.0697 19.6667 17.3333C19.6667 16.597 19.0697 16 18.3333 16C17.597 16 17 16.597 17 17.3333C17 18.0697 17.597 18.6667 18.3333 18.6667Z" stroke="#373F47" stroke-linecap="round" stroke-linejoin="round"/>
<path d="M7.66671 13.3334C8.40309 13.3334 9.00004 12.7364 9.00004 12C9.00004 11.2636 8.40309 10.6667 7.66671 10.6667C6.93033 10.6667 6.33337 11.2636 6.33337 12C6.33337 12.7364 6.93033 13.3334 7.66671 13.3334Z" stroke="#373F47" stroke-linecap="round" stroke-linejoin="round"/>
<path d="M9 12H17" stroke="#373F47" stroke-linecap="round" stroke-linejoin="round"/>
<path d="M17 6.66669H14.3334C13 6.66669 12.3334 7.33335 12.3334 8.66669V15.3334C12.3334 16.6667 13 17.3334 14.3334 17.3334H17" stroke="#373F47" stroke-linecap="round" stroke-linejoin="round"/>
</svg>
