<svg width="24" height="24" viewBox="0 0 24 24" fill="none" xmlns="http://www.w3.org/2000/svg">
<path d="M18.44 10.9602L17.7867 13.7468C17.2267 16.1535 16.12 17.1268 14.04 16.9268C13.7067 16.9002 13.3467 16.8402 12.96 16.7468L11.84 16.4802C9.06004 15.8202 8.20004 14.4468 8.85337 11.6602L9.50671 8.86684C9.64004 8.30018 9.80004 7.80684 10 7.40018C10.78 5.78684 12.1067 5.35351 14.3334 5.88018L15.4467 6.14018C18.24 6.79351 19.0934 8.17351 18.44 10.9602Z" stroke="#373F47" stroke-linecap="round" stroke-linejoin="round"/>
<path d="M14.04 16.9268C13.6266 17.2068 13.1066 17.4401 12.4733 17.6468L11.42 17.9934C8.77332 18.8468 7.37998 18.1334 6.51998 15.4868L5.66665 12.8534C4.81332 10.2068 5.51998 8.80678 8.16665 7.95345L9.21998 7.60678C9.49332 7.52012 9.75332 7.44678 9.99998 7.40012C9.79998 7.80678 9.63998 8.30012 9.50665 8.86678L8.85332 11.6601C8.19998 14.4468 9.05998 15.8201 11.84 16.4801L12.96 16.7468C13.3466 16.8401 13.7066 16.9001 14.04 16.9268Z" stroke="#373F47" stroke-linecap="round" stroke-linejoin="round"/>
</svg>
