<svg width="24" height="24" viewBox="0 0 24 24" fill="none" xmlns="http://www.w3.org/2000/svg">
<g opacity="0.9">
<path d="M15.3334 12.9333V14.9333C15.3334 17.6 14.2667 18.6667 11.6 18.6667H9.06671C6.40004 18.6667 5.33337 17.6 5.33337 14.9333V12.4C5.33337 9.73332 6.40004 8.66666 9.06671 8.66666H11.0667" stroke="#373F47" stroke-linecap="round" stroke-linejoin="round"/>
<path d="M15.3333 12.9333H13.2C11.6 12.9333 11.0667 12.4 11.0667 10.8V8.66666L15.3333 12.9333Z" stroke="#373F47" stroke-linecap="round" stroke-linejoin="round"/>
<path d="M11.7333 5.33334H14.3999" stroke="#373F47" stroke-linecap="round" stroke-linejoin="round"/>
<path d="M8.66663 7.33334C8.66663 6.22668 9.55996 5.33334 10.6666 5.33334H12.4133" stroke="#373F47" stroke-linecap="round" stroke-linejoin="round"/>
<path d="M18.6667 9.33334V13.46C18.6667 14.4933 17.8267 15.3333 16.7933 15.3333" stroke="#373F47" stroke-linecap="round" stroke-linejoin="round"/>
<path d="M18.6666 9.33334H16.6666C15.1666 9.33334 14.6666 8.83334 14.6666 7.33334V5.33334L18.6666 9.33334Z" stroke="#373F47" stroke-linecap="round" stroke-linejoin="round"/>
</g>
</svg>
