<svg width="24" height="24" viewBox="0 0 24 24" fill="none" xmlns="http://www.w3.org/2000/svg">
<path d="M19.1667 15.16V7.1133C19.1667 6.3133 18.5134 5.71996 17.72 5.78663H17.68C16.28 5.90663 14.1534 6.61996 12.9667 7.36663L12.8534 7.43996C12.66 7.55996 12.34 7.55996 12.1467 7.43996L11.98 7.33996C10.7934 6.59996 8.67337 5.8933 7.27337 5.77996C6.48004 5.7133 5.83337 6.3133 5.83337 7.10663V15.16C5.83337 15.8 6.35337 16.4 6.99337 16.48L7.18671 16.5066C8.63337 16.7 10.8667 17.4333 12.1467 18.1333L12.1734 18.1466C12.3534 18.2466 12.64 18.2466 12.8134 18.1466C14.0934 17.44 16.3334 16.7 17.7867 16.5066L18.0067 16.48C18.6467 16.4 19.1667 15.8 19.1667 15.16Z" stroke="#373F47" stroke-linecap="round" stroke-linejoin="round"/>
<path d="M12.5 7.66V17.66" stroke="#373F47" stroke-linecap="round" stroke-linejoin="round"/>
<path d="M9.66663 9.66H8.16663" stroke="#373F47" stroke-linecap="round" stroke-linejoin="round"/>
<path d="M10.1666 11.66H8.16663" stroke="#373F47" stroke-linecap="round" stroke-linejoin="round"/>
</svg>
