<svg width="25" height="25" viewBox="0 0 25 25" fill="none" xmlns="http://www.w3.org/2000/svg">
<path d="M12.9731 15.0214C14.63 15.0244 15.9755 13.6837 15.9785 12.0268C15.9815 10.37 14.6407 9.02442 12.9839 9.02145C11.327 9.01849 9.98148 10.3592 9.97852 12.0161C9.97555 13.6729 11.3163 15.0185 12.9731 15.0214Z" stroke="#FAFAFA" stroke-width="1.5" stroke-miterlimit="10" stroke-linecap="round" stroke-linejoin="round"/>
<path d="M2.97696 12.8836L2.98011 11.1236C2.98197 10.0836 3.83351 9.22508 4.8835 9.22696C6.6935 9.2302 7.43579 7.95152 6.5286 6.3799C6.01021 5.47897 6.32231 4.30952 7.23323 3.79115L8.965 2.80425C9.75584 2.33566 10.7753 2.61749 11.2439 3.40833L11.3536 3.59852C12.2508 5.17013 13.7308 5.17278 14.6436 3.60441L14.7539 3.41461C15.2253 2.62545 16.2458 2.34728 17.035 2.81869L18.7632 3.81178C19.6723 4.33341 19.9802 5.50396 19.4586 6.40303C18.5458 7.9714 19.2835 9.25272 21.0935 9.25596C22.1335 9.25782 22.992 10.1094 22.9901 11.1594L22.9869 12.9194C22.9851 13.9594 22.1335 14.8178 21.0835 14.816C19.2735 14.8127 18.5312 16.0914 19.4384 17.663C19.9568 18.5739 19.6447 19.7334 18.7338 20.2518L17.002 21.2387C16.2112 21.7072 15.1917 21.4254 14.7231 20.6346L14.6134 20.4444C13.7163 18.8728 12.2363 18.8701 11.3235 20.4385L11.2131 20.6283C10.7417 21.4175 9.7212 21.6956 8.93204 21.2242L7.20382 20.2311C6.29475 19.7095 5.98685 18.5389 6.50845 17.6399C7.42126 16.0715 6.68355 14.7902 4.87356 14.7869C3.82356 14.7851 2.9751 13.9235 2.97696 12.8836Z" stroke="#FAFAFA" stroke-width="1.5" stroke-miterlimit="10" stroke-linecap="round" stroke-linejoin="round"/>
</svg>
